<svg id="Capa_1" data-name="Capa 1" xmlns="http://www.w3.org/2000/svg" xmlns:xlink="http://www.w3.org/1999/xlink" viewBox="0 0 61.82 80.36"><defs><style>.cls-1{fill:none;}.cls-2{clip-path:url(#clip-path);}.cls-3{fill:#b2b2b2;}</style><clipPath id="clip-path"><rect class="cls-1" x="7.91" y="22.93" width="46" height="37.55"/></clipPath></defs><title>iconos svg</title><g class="cls-2"><path class="cls-3" d="M49.59,57.05a5,5,0,0,0-7,0,2.15,2.15,0,0,1-3.07,0,5,5,0,0,0-7,0,2.15,2.15,0,0,1-3.07,0,5,5,0,0,0-7,0,2.16,2.16,0,0,1-3.08,0,5,5,0,0,0-7,0c-1.27,1.32-3.43.46-4.32-1.13v3.66a4.91,4.91,0,0,0,6.29-.7,2.18,2.18,0,0,1,3.1,0,4.94,4.94,0,0,0,7,0,2.18,2.18,0,0,1,3.1,0,5,5,0,0,0,7,0,2.18,2.18,0,0,1,3.1,0,5,5,0,0,0,7,0,2.18,2.18,0,0,1,3.1,0,4.9,4.9,0,0,0,6.29.7v-3.9c-.51,1.69-3,2.83-4.32,1.37Zm0,0"/></g><path class="cls-3" d="M49.59,51.66a5,5,0,0,0-7,0,2.15,2.15,0,0,1-3.07,0,5,5,0,0,0-7,0,2.15,2.15,0,0,1-3.07,0,5,5,0,0,0-7,0,2.16,2.16,0,0,1-3.08,0,5,5,0,0,0-7,0C11,53,8.8,52.12,7.91,50.53v3.66a4.91,4.91,0,0,0,6.29-.7,2.18,2.18,0,0,1,3.1,0,4.94,4.94,0,0,0,7,0,2.18,2.18,0,0,1,3.1,0,5,5,0,0,0,7,0,2.18,2.18,0,0,1,3.1,0,5,5,0,0,0,7,0,2.18,2.18,0,0,1,3.1,0,4.9,4.9,0,0,0,6.29.7v-3.9c-.51,1.69-3,2.83-4.32,1.37Zm0,0"/><path class="cls-3" d="M47.08,25.62V22.93c-3.57,0-8.85,0-9.38,8.08h2.69c.39-5.38,3.2-5.39,6.69-5.39Zm0,0"/><path class="cls-3" d="M33.6,25.62V22.93c-3.56,0-8.85,0-9.38,8.08h2.69c.39-5.38,3.2-5.39,6.69-5.39Zm0,0"/><path class="cls-3" d="M26.86,32.36v2.7H37.65v-2.7c0-.48,0-.91.05-1.35H26.91c0,.42-.05.87-.05,1.35Zm0,0"/><path class="cls-3" d="M7.91,47.83C8.8,49.42,11,50.29,12.23,49a5,5,0,0,1,7,0,2.14,2.14,0,0,0,3.08,0,4.52,4.52,0,0,1,1.83-1.15s0-16.36,0-16.8H7.91Zm0,0"/><rect class="cls-3" x="26.86" y="37.75" width="10.78" height="4.04"/><path class="cls-3" d="M40.39,31c0,.42,0,.87,0,1.35V49.48A2.13,2.13,0,0,0,42.55,49a5,5,0,0,1,7,0c1.32,1.45,3.81.32,4.32-1.38V31Zm0,0"/><path class="cls-3" d="M26.86,47.61A4.73,4.73,0,0,1,29.37,49a2.13,2.13,0,0,0,3.07,0,5,5,0,0,1,5.21-1.15V44.49H26.86Zm0,0"/><rect class="cls-1" y="1.53" width="61.82" height="80.36"/></svg>