<svg id="Capa_1" data-name="Capa 1" xmlns="http://www.w3.org/2000/svg" xmlns:xlink="http://www.w3.org/1999/xlink" viewBox="0 0 61.82 80.36"><defs><style>.cls-1{fill:none;}.cls-2{fill:#b2b2b2;}.cls-3{clip-path:url(#clip-path);}</style><clipPath id="clip-path"><rect class="cls-1" x="6.6" y="22.07" width="48.61" height="37.03"/></clipPath></defs><title>iconos svg</title><rect class="cls-2" x="49.42" y="33.46" width="5.79" height="14.24"/><g class="cls-3"><path class="cls-2" d="M36.6,40.58a5.68,5.68,0,0,0-4.27-5.49v11a5.7,5.7,0,0,0,4.27-5.5Zm0,0"/><path class="cls-2" d="M55.21,50.55H46.57V46.08a5.67,5.67,0,0,1,0-11V30.61h8.64V22.07H32.33V32.18a8.52,8.52,0,0,1,0,16.8V59.09H55.21Zm0,0"/></g><path class="cls-2" d="M45.15,40.58A2.81,2.81,0,0,0,46.57,43V38.17a2.82,2.82,0,0,0-1.42,2.41Zm0,0"/><g class="cls-3"><path class="cls-2" d="M25.21,40.58a5.7,5.7,0,0,0,4.27,5.5v-11a5.68,5.68,0,0,0-4.27,5.49Zm0,0"/><path class="cls-2" d="M22.36,40.58a8.54,8.54,0,0,1,7.12-8.4V22.07H6.6v8.54h8.64v4.48a5.67,5.67,0,0,1,0,11v4.47H6.6v8.54H29.48V49a8.53,8.53,0,0,1-7.12-8.4Zm0,0"/></g><path class="cls-2" d="M16.67,40.58a2.81,2.81,0,0,0-1.43-2.41V43a2.8,2.8,0,0,0,1.43-2.41Zm0,0"/><rect class="cls-2" x="6.6" y="33.46" width="5.79" height="14.24"/><rect class="cls-1" y="0.4" width="61.82" height="80.36"/></svg>