<svg id="Capa_1" data-name="Capa 1" xmlns="http://www.w3.org/2000/svg" viewBox="0 0 61.82 80.36"><defs><style>.cls-1{fill:#b2b2b2;}.cls-2{fill:none;}</style></defs><title>iconos svg</title><path class="cls-1" d="M41.72,38a2,2,0,0,0-.54.07l-2,.57L37,33.5a4.64,4.64,0,0,0-4-2.66H13.15a4.62,4.62,0,0,0-4,2.66L7.06,38.67l-2-.56A2,2,0,0,0,4.5,38a1.65,1.65,0,0,0-1.66,1.75V41A2.16,2.16,0,0,0,5,43.16h.23L4.88,44a16.13,16.13,0,0,0-1,5.14V59.42A2.15,2.15,0,0,0,6,61.57H8.83A2.16,2.16,0,0,0,11,59.42V56.85H35.2v2.57a2.16,2.16,0,0,0,2.16,2.15h2.81a2.16,2.16,0,0,0,2.16-2.15V49.13a16.15,16.15,0,0,0-1-5.14L41,43.16h.26A2.16,2.16,0,0,0,43.39,41V39.8A1.66,1.66,0,0,0,41.72,38ZM8.61,42l3.21-7.83a2.79,2.79,0,0,1,2.38-1.6H32a2.79,2.79,0,0,1,2.38,1.6L37.58,42a1.07,1.07,0,0,1-1.07,1.59H9.68A1.07,1.07,0,0,1,8.61,42Zm7.17,9.9a.86.86,0,0,1-.86.86H8.82A.87.87,0,0,1,8,51.89V49a.87.87,0,0,1,.87-.86h6.1a.86.86,0,0,1,.86.86Zm22.4,0a.87.87,0,0,1-.86.86H31.21a.87.87,0,0,1-.86-.86V49a.87.87,0,0,1,.86-.86h6.11a.87.87,0,0,1,.86.86Zm0,0"/><path class="cls-1" d="M55,21.83H44.76a2.7,2.7,0,0,0-2.7,2.69V34.73a2.7,2.7,0,0,0,2.7,2.7h4.1V60.34a1,1,0,0,0,2,0V37.43H55a2.7,2.7,0,0,0,2.69-2.7V24.52A2.7,2.7,0,0,0,55,21.83Zm-2.32,8.46a3.7,3.7,0,0,1-2.56.8H48.61a.32.32,0,0,0-.32.32V33.9a.49.49,0,0,1-.5.49H46.68a.49.49,0,0,1-.5-.49V25.35a.49.49,0,0,1,.5-.49h2.81c1.87,0,2.57.28,3.14.77A2.89,2.89,0,0,1,53.54,28a2.94,2.94,0,0,1-.89,2.32Zm0,0"/><path class="cls-1" d="M51.06,26.93a2.48,2.48,0,0,0-1.44-.31h-1a.32.32,0,0,0-.32.32v2a.32.32,0,0,0,.32.32h.6c.23,0,.59,0,.81,0a3,3,0,0,0,1-.27,1.54,1.54,0,0,0,0-2.07Zm0,0"/><rect class="cls-2" x="-0.66" y="1.52" width="61.82" height="80.36"/></svg>