<svg id="Capa_1" data-name="Capa 1" xmlns="http://www.w3.org/2000/svg" viewBox="0 0 61.82 80.36"><defs><style>.cls-1{fill:none;}.cls-2{fill:#b2b2b2;}</style></defs><title>icono 6</title><rect class="cls-1" width="61.82" height="80.36"/><path class="cls-2" d="M54.18,57.38,34.93,38.12,12.43,15.63H10.67l-.35.91a16.13,16.13,0,0,0-1.18,7.12A10.07,10.07,0,0,0,12,30.08L29.52,47.64l2.32-2.31L48.08,63.48a4.35,4.35,0,0,0,6.1,0h0A4.3,4.3,0,0,0,54.18,57.38Z"/><path class="cls-2" d="M7.63,57.33a4.32,4.32,0,0,0,6.11,6.11L27.49,49.68l-6.1-6.1Z"/><path class="cls-2" d="M40.58,38.11A7.18,7.18,0,0,0,45.23,36L55.41,25.84l-2-2-7.8,7.8-2-2,7.8-7.8-2-2-7.8,7.8-2-2,7.8-7.8-2-2L35.06,25.84A7.18,7.18,0,0,0,33,30.49a3.84,3.84,0,0,1-.29,1.3l6.61,6.61A3.84,3.84,0,0,1,40.58,38.11Z"/></svg>