<svg id="Capa_1" data-name="Capa 1" xmlns="http://www.w3.org/2000/svg" viewBox="0 0 61.82 80.36"><defs><style>.cls-1{fill:#b2b2b2;}.cls-2{fill:none;}</style></defs><title>iconos svg</title><path class="cls-1" d="M30.25,28.58a5.5,5.5,0,1,0-5.5-5.5,5.51,5.51,0,0,0,5.5,5.5Zm0,0"/><path class="cls-1" d="M31.4,30.36a.66.66,0,0,0-.48-.2H29.57a.66.66,0,0,0-.48.2.62.62,0,0,0-.08.74l.72,1.09L29.39,35l.67,1.77a.2.2,0,0,0,.38,0L31.1,35l-.34-2.84.72-1.09a.62.62,0,0,0-.08-.74Zm0,0"/><path class="cls-1" d="M21.78,43.07H38.72a.78.78,0,0,0,.78-.79V35.23a4.8,4.8,0,0,0-3.32-4.55l-1.54-.47a.55.55,0,0,0-.69.34l-3.7,10.16L26.54,30.55a.55.55,0,0,0-.52-.37.45.45,0,0,0-.16,0l-1.54.47A4.81,4.81,0,0,0,21,35.23v7.05a.79.79,0,0,0,.79.79Zm0,0"/><path class="cls-1" d="M12.64,31.39a5.5,5.5,0,1,0-5.5-5.5,5.5,5.5,0,0,0,5.5,5.5Zm0,0"/><path class="cls-1" d="M22,46.51H17.62V37.86a5,5,0,0,0-10,0V49.61a4.78,4.78,0,0,0,4.78,4.79h5.68v7.83a1.35,1.35,0,0,0,1.35,1.35h5.25a1.34,1.34,0,0,0,1.35-1.35V50.59A4.08,4.08,0,0,0,22,46.51Zm0,0"/><path class="cls-1" d="M47.85,31.39a5.5,5.5,0,1,0-5.5-5.5,5.5,5.5,0,0,0,5.5,5.5Zm0,0"/><path class="cls-1" d="M47.85,32.88a5,5,0,0,0-5,5v8.65H38.49a4.08,4.08,0,0,0-4.07,4.08V62.23a1.34,1.34,0,0,0,1.35,1.35H41a1.35,1.35,0,0,0,1.35-1.35V54.4h5.68a4.79,4.79,0,0,0,4.79-4.79V37.86a5,5,0,0,0-5-5Zm0,0"/><rect class="cls-2" x="-0.66" y="0.4" width="61.82" height="80.36"/></svg>