<svg id="Capa_1" data-name="Capa 1" xmlns="http://www.w3.org/2000/svg" xmlns:xlink="http://www.w3.org/1999/xlink" viewBox="0 0 61.82 80.36"><defs><style>.cls-1{fill:none;}.cls-2{fill:#b2b2b2;}.cls-3{clip-path:url(#clip-path);}</style><clipPath id="clip-path"><rect class="cls-1" x="12.45" y="17.89" width="36" height="46.8"/></clipPath></defs><title>iconos svg</title><path class="cls-2" d="M36.74,38.52a1.27,1.27,0,0,0,.26,0,.79.79,0,0,0,.76-.55,1.42,1.42,0,0,1,1.78-.88,3,3,0,0,0,3.82-1.88.8.8,0,0,0-.5-1,.79.79,0,0,0-1,.5,1.42,1.42,0,0,1-1.79.88,3,3,0,0,0-3.82,1.88.82.82,0,0,0,.5,1Zm0,0"/><path class="cls-2" d="M38.64,32.94a.75.75,0,0,0,.26,0,.79.79,0,0,0,.75-.54,1.41,1.41,0,0,1,1.79-.88,3,3,0,0,0,3.81-1.88.8.8,0,1,0-1.51-.52A1.41,1.41,0,0,1,42,30a3,3,0,0,0-3.81,1.89.8.8,0,0,0,.5,1Zm0,0"/><g class="cls-3"><path class="cls-2" d="M40.53,27.37a1.09,1.09,0,0,0,.26,0,.79.79,0,0,0,.75-.55,1.05,1.05,0,0,1,1.32-.65,2.62,2.62,0,0,0,2-.13,2.59,2.59,0,0,0,1.33-1.52.8.8,0,0,0-1.51-.51,1,1,0,0,1-.53.6,1,1,0,0,1-.79.05A2.64,2.64,0,0,0,40,26.35a.81.81,0,0,0,.5,1Zm0,0"/><path class="cls-2" d="M45.87,38.29a56.14,56.14,0,0,0,2.58-15A5.69,5.69,0,0,0,47,19.33a3.32,3.32,0,0,0-4.11-.6c-2.4,1.23-4.11,4.86-5.48,7.77-.08.17-.15.33-.23.49a4.63,4.63,0,0,0-2.54-3.21,3.8,3.8,0,0,0-3-2.94l-.06-.25a2.76,2.76,0,0,0-2.29-1.95,2.66,2.66,0,0,0-1.7.34,2.95,2.95,0,0,0-4.28,1.91,3.59,3.59,0,0,0-2.65,3.43,4,4,0,0,0-3,3.88,4.18,4.18,0,0,0,.27,1.44,3.15,3.15,0,0,0-.7,2,3.3,3.3,0,0,0,.26,1.26,4.19,4.19,0,0,0-3.18-1.54.8.8,0,0,0,0,1.6h.08A2.74,2.74,0,0,1,16.36,34a5.42,5.42,0,0,0-3.51,2.31,4.05,4.05,0,0,0-.2,2.93,1.38,1.38,0,0,0-.19.8L13.82,59.4a4.55,4.55,0,0,0,4.55,4.33H40.83a4.55,4.55,0,0,0,4.55-4.32l1.39-20a1,1,0,0,0-.28-.78,1.05,1.05,0,0,0-.62-.31Zm-8.08-9c.32-.59.66-1.32,1-2.1,1.2-2.55,2.85-6.05,4.76-7a1.73,1.73,0,0,1,2.23.29,4.21,4.21,0,0,1,1,2.75A55.16,55.16,0,0,1,44.29,38c0,.17-.17.51-.34,1l-1.36.61-.08,0a2.54,2.54,0,0,1-1.28.35A2.51,2.51,0,0,1,40,39.61l-.57-.34a4.06,4.06,0,0,0-2.12-.59,4.18,4.18,0,0,0-.61,0,4,4,0,0,0-1.57.54l-.57.34a2.49,2.49,0,0,1-1,.32,1.21,1.21,0,0,1,0-.18c.22-.75.46-1.5.71-2.24l.28-.81c.21-.58.43-1.17.65-1.74.1-.25.2-.49.29-.74a54.43,54.43,0,0,1,2.32-4.94Zm-9.24,9.47-.26,0a3.85,3.85,0,0,0-.77.25l-.16-.71c.23,0,.46,0,.68,0a6.18,6.18,0,0,0,3.81-1.33,10,10,0,0,1,1.1-.69l-.21.62c-.05.16-.11.3-.16.45-.23.71-.46,1.43-.66,2.16l-.54-.32a4.15,4.15,0,0,0-2.12-.59,3.68,3.68,0,0,0-.58,0l-.13,0ZM27.28,27.93a.33.33,0,1,1-.14-.64l4.49-1a.34.34,0,0,1,.32.26.33.33,0,0,1-.05.25.3.3,0,0,1-.2.15Zm.32,3.25.26-.36a1,1,0,0,0,.17-.25,1.73,1.73,0,0,0,.15-1.2l3.34-.73a1.32,1.32,0,0,0,.09.3,1.79,1.79,0,0,0,.79.89l.37.2.33.18.16.08.28.17.23.15.26.2.22.2.22.23a3,3,0,0,1,.34.49c-.34.74-.66,1.51-1,2.28l-.15.35a8.24,8.24,0,0,0-2.77,1.39,4.74,4.74,0,0,1-3.91,1l-.49-2.23a3.62,3.62,0,0,1,1.08-3.29ZM22.86,51.07a.8.8,0,1,1,0,1.6h-5.6a.8.8,0,1,1,0-1.6Zm-5.6,3.2h7.2a.8.8,0,1,1,0,1.6h-7.2a.8.8,0,0,1,0-1.6Zm2.15-23.85.52-.43-.34-.59a2.43,2.43,0,0,1-.33-1.2,2.41,2.41,0,0,1,2.32-2.41l1,0-.23-.95a1.82,1.82,0,0,1-.06-.46,2,2,0,0,1,1.84-2l.73-.06v-.79a1.36,1.36,0,0,1,1.35-1.31,1.31,1.31,0,0,1,.89.36l.56.5.54-.53a1.08,1.08,0,0,1,.93-.31A1.14,1.14,0,0,1,30,21a1,1,0,0,1,0,.42l-.09.9h.9a2.2,2.2,0,0,1,2.19,2l0,.53.5.17a3.05,3.05,0,0,1,2,2.95,2.9,2.9,0,0,1-.52,1.59,7.72,7.72,0,0,0-1.6-1l-.36-.2a.18.18,0,0,1-.1-.14.52.52,0,0,1,.11-.35,1.73,1.73,0,0,0,.38-1.48l-.1-.44a1.73,1.73,0,0,0-2-1.3l-.21.05h0l-2.35.51-2.28.5a1.71,1.71,0,0,0-1.31,2l.05.22h0l.05.21a1.74,1.74,0,0,0,1,1.2.46.46,0,0,1,.27.26c0,.06,0,.09,0,.16l-.26.33-.27.35-.08.12-.21.29-.1.15-.18.3a1,1,0,0,0-.1.17,3.78,3.78,0,0,0-.17.35,1,1,0,0,1-.07.15,5.05,5.05,0,0,0-.18.55.29.29,0,0,1,0,.09c0,.16-.07.33-.09.51s0,.15,0,.22a2.46,2.46,0,0,0,0,.28l-.07-.08-.16-.2c-.11-.15-.24-.28-.35-.42l-.18-.18a4.27,4.27,0,0,0-.38-.36l-.14-.13L23,32l-.16-.08a3.24,3.24,0,0,0-.37-.19l-.21-.08-.34-.1-.21-.05a2.25,2.25,0,0,0-.44,0h-.1A4.22,4.22,0,0,0,19,32.2a1.58,1.58,0,0,1-.11-.58,1.54,1.54,0,0,1,.57-1.2Zm-5.14,6.64c.33-.63,1.16-1.12,2.58-1.53a4.29,4.29,0,0,0,1.79-1c.22-.21.44-.4.64-.56a5.49,5.49,0,0,1,.53-.39h0a3.23,3.23,0,0,1,.93-.44h0a1.64,1.64,0,0,1,.42-.06c1,0,2.08,1,3.21,3a6.08,6.08,0,0,1,.53,3.9l-.18,0a2.6,2.6,0,0,1-.82-.3l-.57-.34a4,4,0,0,0-2.73-.54,4,4,0,0,0-1.57.54l-.28.17a3.08,3.08,0,0,1-3.14,0l-1.08-.65a1.44,1.44,0,0,0-.45-.17,2.32,2.32,0,0,1,.14-1.56Zm11.79,22h-8.8a.8.8,0,0,1,0-1.6h8.8a.8.8,0,0,1,0,1.6Zm4.8,0h-1.6a.8.8,0,0,1,0-1.6h1.6a.8.8,0,0,1,0,1.6Zm0,0"/></g><rect class="cls-1" x="-0.45" y="1.11" width="61.82" height="80.36"/></svg>